<svg width="39" height="26" fill="none" xmlns="http://www.w3.org/2000/svg"><path d="M28.779 22.604c.138.994-.239 1.943-.92 2.538a2.513 2.513 0 0 1-1.843.625c-.009 0-.018 0-.027-.002a2.776 2.776 0 0 1-1.808-.855c-.757-.804-.735-1.802-.726-2.011 0-.1.005-.198.017-.295h-8.218c.011.097.016.195.016.295.01.209.031 1.207-.725 2.01a2.776 2.776 0 0 1-1.808.856c-.01.002-.019.002-.028.002a2.553 2.553 0 0 1-1.433-.33 2.59 2.59 0 0 1-.41-.293v-.002a2.853 2.853 0 0 1-.92-2.538h-2.96l.06-.22 1.105-4.068.242-.011 2.828-.126a.228.228 0 1 0-.02-.455l-2.683.119-.24.011.402-1.482.233.02 2.271.188h.02a.228.228 0 0 0 .02-.455l-2.189-.181-.233-.02.407-1.5.216.083 2.155.824a.23.23 0 0 0 .297-.13.228.228 0 0 0-.131-.295l-2.2-.843-.216-.082L12.912.802l2.583 7.88c.608-.306 2.025-.932 3.86-.904h.016c1.834-.028 3.251.598 3.859.903L25.814.802l3.581 13.18-.216.082-2.2.842a.228.228 0 1 0 .166.425l2.155-.824.216-.083.408 1.5-.234.02-2.188.18a.23.23 0 0 0-.21.247.23.23 0 0 0 .228.209h.02l2.272-.188.234-.02.401 1.482-.24-.011-2.683-.119a.228.228 0 1 0-.02.455l2.828.126.242.01 1.105 4.069.06.22h-2.96Z" fill="#F4E041"/><path d="m32.038 22.832-.06-.22-.062-.228-1.102-4.058-.24-.01-.242-.011 1.107 4.07h-2.925l.036.26a2.644 2.644 0 0 1-.597 2.089 2.332 2.332 0 0 1-.608.507 2.3 2.3 0 0 1-1.328.308 2.526 2.526 0 0 1-1.668-.785c-.643-.683-.678-1.518-.663-1.855 0-.1.004-.187.014-.27l.03-.254h-8.735l.03.255c.01.082.015.17.015.278.014.328-.022 1.163-.664 1.846a2.526 2.526 0 0 1-1.667.785c-.078.005-.156.007-.235.005a2.3 2.3 0 0 1-1.092-.311h-.001a1.936 1.936 0 0 1-.315-.22 2.332 2.332 0 0 1-.295-.289 2.644 2.644 0 0 1-.596-2.09l.035-.259H7.287l1.106-4.07-.242.01-.24.011-1.103 4.058-.062.229-.06.219h3.007c-.076 1.34.702 2.58 1.922 3.01 1.062.377 2.307.064 3.098-.777.76-.81.803-1.792.787-2.166v-.067h7.725v.057c-.017.384.026 1.366.787 2.176.568.604 1.37.935 2.169.935.314 0 .628-.052.929-.158 1.22-.43 1.998-1.67 1.922-3.01h3.006ZM8.68 16.372l-.234-.02-.41 1.512.242-.01.24-.011.395-1.452-.233-.019ZM25.835 0l-.241.73-2.156 6.573-.346 1.057c-.876-.408-2.174-.838-3.721-.81h-.013a8.55 8.55 0 0 0-3.725.81l-.347-1.057c-.718-2.19-1.436-4.381-2.156-6.572L12.89 0 9.114 13.898l.216.084.216.082 3.386-12.462c.64 1.948 1.278 3.895 1.916 5.842l.512 1.56.24-.12c.823-.416 2.148-.908 3.755-.879h.02c1.61-.027 2.926.463 3.75.878l.24.121.512-1.56a6874.56 6874.56 0 0 1 1.916-5.842l3.386 12.461.217-.082.215-.083L25.835 0ZM8.993 14.34l-.425 1.565.234.019.233.02.39-1.437-.216-.083-.216-.083Zm20.739.002-.215.082-.217.083.39 1.436.234-.019.232-.018-.424-1.564Zm.546 2.01-.232.02-.234.02.395 1.45.24.012.241.01-.41-1.511Z" fill="#000" fill-opacity=".87"/><path d="M21.187 14.95a.486.486 0 0 1-.49-.485v-2.937c0-.268.22-.485.49-.485s.489.217.489.485v2.937a.487.487 0 0 1-.49.484ZM17.825 14.437a.489.489 0 0 1-.538-.431l-.238-2.217a.486.486 0 0 1 .435-.533.488.488 0 0 1 .538.43l.238 2.217a.486.486 0 0 1-.435.534ZM11.875 15.201a.23.23 0 0 1-.297.13l-2.154-.824-.217-.083-.216-.083-3.13-1.199a.227.227 0 0 1-.133-.295.231.231 0 0 1 .298-.13l3.086 1.181.216.083.216.082 2.2.843a.227.227 0 0 1 .131.295ZM11.43 16.37a.229.229 0 0 1-.229.21h-.02l-2.27-.189-.234-.019-.233-.02-3.371-.279a.227.227 0 1 1 .039-.453l3.454.285.233.019.234.02 2.188.18c.127.01.22.122.21.247ZM11.439 17.942a.228.228 0 0 1-.22.237l-2.828.126-.242.011-.24.01-2.814.126h-.01a.228.228 0 0 1-.01-.456l2.96-.131.241-.01.24-.012 2.682-.119a.227.227 0 0 1 .24.218ZM32.861 13.142l-3.131 1.2-.216.082-.216.083-2.154.824a.232.232 0 0 1-.298-.13.228.228 0 0 1 .132-.295l2.2-.843.216-.082.215-.083 3.087-1.18a.231.231 0 0 1 .298.13.229.229 0 0 1-.133.294ZM33.857 15.827a.23.23 0 0 1-.211.246l-3.371.28-.233.02-.233.019-2.272.188h-.02a.23.23 0 0 1-.229-.209.23.23 0 0 1 .21-.246l2.189-.181.233-.02.233-.018 3.455-.286a.228.228 0 0 1 .249.207ZM33.865 18.234a.23.23 0 0 1-.23.218h-.01l-2.815-.126-.24-.01-.24-.011-2.83-.126a.228.228 0 1 1 .02-.455l2.684.119.24.011.24.01 2.961.131a.228.228 0 0 1 .22.239Z" fill="#000" fill-opacity=".87"/><path d="M25.92 23.58a3.343 3.343 0 0 1 .094 1.96l-.093-1.96Z" fill="#fff"/><path d="M26.015 25.767a.227.227 0 0 1-.223-.283 3.158 3.158 0 0 0-.088-1.83.227.227 0 0 1 .142-.289.23.23 0 0 1 .293.142 3.61 3.61 0 0 1 .1 2.088.232.232 0 0 1-.223.172Z" fill="#000" fill-opacity=".87"/><path d="M27.422 23.49c.14.224.263.497.301.81a1.75 1.75 0 0 1-.151.945l-.15-1.756Z" fill="#fff"/><path d="M27.572 25.472a.227.227 0 0 1-.21-.32c.12-.274.165-.551.131-.825-.03-.24-.12-.48-.268-.72a.226.226 0 0 1 .075-.313.231.231 0 0 1 .316.074c.185.295.296.599.334.905.044.355-.012.713-.168 1.063a.23.23 0 0 1-.21.136Z" fill="#000" fill-opacity=".87"/><path d="M12.803 23.58c-.088.25-.164.556-.188.906-.03.412.023.77.094 1.053l.094-1.96Z" fill="#fff"/><path d="M12.707 25.767a.23.23 0 0 1-.223-.173 3.607 3.607 0 0 1 .1-2.089.231.231 0 0 1 .292-.141c.12.041.184.171.143.29a3.158 3.158 0 0 0-.089 1.83.228.228 0 0 1-.168.275.186.186 0 0 1-.055.008Z" fill="#000" fill-opacity=".87"/><path d="M11.302 23.49a1.983 1.983 0 0 0-.302.81c-.046.37.037.69.152.945l.15-1.756Z" fill="#fff"/><path d="M11.15 25.472a.231.231 0 0 1-.21-.136 1.978 1.978 0 0 1-.168-1.063c.038-.306.15-.61.334-.905a.231.231 0 0 1 .316-.074.226.226 0 0 1 .075.314c-.148.237-.238.48-.268.72-.033.273.01.55.132.823a.227.227 0 0 1-.21.32ZM8.355 22.799H.245c-.135 0-.245-.088-.245-.194 0-.107.11-.195.245-.195h8.11c.135 0 .245.088.245.195 0 .106-.11.194-.245.194ZM37.884 22.84H30.26a.23.23 0 0 1-.23-.229.23.23 0 0 1 .23-.227h7.625a.23.23 0 0 1 .23.227.229.229 0 0 1-.23.229ZM21.704 18.644c-.166.427-.549.888-1.036.958-.45.063-.864-.176-1.162-.546-.029.078-.064.16-.11.24-.075.133-.477.787-1.147.787h-.018c-.638-.011-1.192-.587-1.288-1.34a.228.228 0 0 1 .2-.255.23.23 0 0 1 .257.197c.073.582.484.936.839.942h.009c.422 0 .713-.496.746-.553.159-.283.155-.572.126-.763l-.029-.105c-.443.05-.825-.103-.895-.384-.08-.319.276-.681.795-.809.52-.128 1.006.027 1.086.347.066.263-.163.555-.535.721.011.042.021.093.03.147.187.614.664.973 1.032.922.285-.04.553-.368.67-.669.099-.255.085-.496.056-.652a.23.23 0 0 1 .185-.265.231.231 0 0 1 .269.183c.039.215.057.543-.08.897Z" fill="#000" fill-opacity=".87"/></svg>